<?xml version="1.0" standalone="no"?>
<svg preserveAspectRatio="none" xmlns:xlink="http://www.w3.org/1999/xlink" id="wave" style="transform:rotate(180deg); transition: 0.3s" viewBox="0 0 1440 400" version="1.1" xmlns="http://www.w3.org/2000/svg"><defs><linearGradient id="sw-gradient-0" x1="0" x2="0" y1="1" y2="0"><stop stop-color="rgba(1, 211, 253, 1)" offset="0%"/><stop stop-color="rgba(2, 40, 46, 1)" offset="100%"/></linearGradient></defs><path style="transform:translate(0, 0px); opacity:1" fill="url(#sw-gradient-0)" d="M0,200L15,166.7C30,133,60,67,90,60C120,53,150,107,180,166.7C210,227,240,293,270,266.7C300,240,330,120,360,113.3C390,107,420,213,450,226.7C480,240,510,160,540,120C570,80,600,80,630,100C660,120,690,160,720,160C750,160,780,120,810,120C840,120,870,160,900,146.7C930,133,960,67,990,33.3C1020,0,1050,0,1080,60C1110,120,1140,240,1170,260C1200,280,1230,200,1260,140C1290,80,1320,40,1350,46.7C1380,53,1410,107,1440,146.7C1470,187,1500,213,1530,193.3C1560,173,1590,107,1620,113.3C1650,120,1680,200,1710,253.3C1740,307,1770,333,1800,333.3C1830,333,1860,307,1890,273.3C1920,240,1950,200,1980,153.3C2010,107,2040,53,2070,60C2100,67,2130,133,2145,166.7L2160,200L2160,400L2145,400C2130,400,2100,400,2070,400C2040,400,2010,400,1980,400C1950,400,1920,400,1890,400C1860,400,1830,400,1800,400C1770,400,1740,400,1710,400C1680,400,1650,400,1620,400C1590,400,1560,400,1530,400C1500,400,1470,400,1440,400C1410,400,1380,400,1350,400C1320,400,1290,400,1260,400C1230,400,1200,400,1170,400C1140,400,1110,400,1080,400C1050,400,1020,400,990,400C960,400,930,400,900,400C870,400,840,400,810,400C780,400,750,400,720,400C690,400,660,400,630,400C600,400,570,400,540,400C510,400,480,400,450,400C420,400,390,400,360,400C330,400,300,400,270,400C240,400,210,400,180,400C150,400,120,400,90,400C60,400,30,400,15,400L0,400Z"/></svg>