<svg id="visual" viewBox="0 0 1440 400" xmlns="http://www.w3.org/2000/svg" preserveAspectRatio="none" xmlns:xlink="http://www.w3.org/1999/xlink" version="1.1"><defs><linearGradient id="myGradient" x1="0" x2="0" y1="0" y2="1"><stop stop-color="#077b8c" offset="0%"/><stop stop-color="#001d24" offset="100%"/></linearGradient></defs><path d="M0 251L21.3 236.3C42.7 221.7 85.3 192.3 128 197.2C170.7 202 213.3 241 256 216C298.7 191 341.3 102 384 92C426.7 82 469.3 151 512 192.8C554.7 234.7 597.3 249.3 640 228.2C682.7 207 725.3 150 768 117.7C810.7 85.3 853.3 77.7 896 102.3C938.7 127 981.3 184 1024 174C1066.7 164 1109.3 87 1152 81C1194.7 75 1237.3 140 1280 158.2C1322.7 176.3 1365.3 147.7 1408 154.5C1450.7 161.3 1493.3 203.7 1536 201.8C1578.7 200 1621.3 154 1664 117.8C1706.7 81.7 1749.3 55.3 1792 79.5C1834.7 103.7 1877.3 178.3 1898.7 215.7L1920 253L1920 0L1898.7 0C1877.3 0 1834.7 0 1792 0C1749.3 0 1706.7 0 1664 0C1621.3 0 1578.7 0 1536 0C1493.3 0 1450.7 0 1408 0C1365.3 0 1322.7 0 1280 0C1237.3 0 1194.7 0 1152 0C1109.3 0 1066.7 0 1024 0C981.3 0 938.7 0 896 0C853.3 0 810.7 0 768 0C725.3 0 682.7 0 640 0C597.3 0 554.7 0 512 0C469.3 0 426.7 0 384 0C341.3 0 298.7 0 256 0C213.3 0 170.7 0 128 0C85.3 0 42.7 0 21.3 0L0 0Z" fill="url(#myGradient)" stroke-linecap="round" stroke-linejoin="miter"></path></svg>